<svg
    xmlns="http://www.w3.org/2000/svg"
    width="512"
    height="512"
    viewBox="0 0 512 512">
<defs>
<linearGradient id="gOuter"
                x1="64"
                y1="32"
                x2="448"
                y2="480"
                gradientUnits="userSpaceOnUse">
    <stop offset="0%" stop-color="#58A6FF"/>
    <stop offset="38%" stop-color="#2F81F7"/>
    <stop offset="100%" stop-color="#1A73E8"/>
</linearGradient>
<linearGradient id="gCore"
                x1="160"
                y1="160"
                x2="352"
                y2="352"
                gradientUnits="userSpaceOnUse">
    <stop offset="0%" stop-color="#7FC2FF"/>
    <stop offset="100%" stop-color="#3D8EFF"/>
</linearGradient>
<linearGradient id="gHighlight"
                x1="0"
                y1="0"
                x2="1"
                y2="1">
    <stop offset="0"
          stop-color="white"
          stop-opacity=".95"/>
    <stop offset=".55"
          stop-color="white"
          stop-opacity=".20"/>
    <stop offset="1"
          stop-color="white"
          stop-opacity="0"/>
</linearGradient>
<filter id="glow">
    <feGaussianBlur stdDeviation="10"
                    result="b"/>
    <feMerge>
        <feMergeNode in="b"/>
        <feMergeNode in="SourceGraphic"/>
    </feMerge>
</filter>
</defs>
<g>
    <path
        d="
            M256 122
            C220 122 192 146 192 182
            C192 210 210 232 244 244
            C298 264 320 282 320 320
            C320 362 292 390 256 390
        "
        fill="none"
        stroke="url(#gCore)"
        stroke-width="30"
        stroke-linecap="round"
        stroke-linejoin="round"/>
    <path
        d="
            M256 122
            C292 122 320 146 320 182
            C320 210 302 232 268 244
            C214 264 192 282 192 320
            C192 362 220 390 256 390
        "
        fill="none"
        stroke="url(#gOuter)"
        stroke-width="30"
        stroke-linecap="round"
        stroke-linejoin="round"/>
    <path
        d="
            M208 186
            C224 176 242 170 256 170
            C270 170 288 176 304 186
        "
        fill="none"
        stroke="#FFFFFF"
        stroke-opacity=".82"
        stroke-width="10"
        stroke-linecap="round"/>
    <path
        d="
            M208 326
            C224 336 242 342 256 342
            C270 342 288 336 304 326
        "
        fill="none"
        stroke="#FFFFFF"
        stroke-opacity=".82"
        stroke-width="10"
        stroke-linecap="round"/>
    <circle
        cx="256"
        cy="256"
        r="58"
        fill="#7FC2FF"
        opacity=".18"
        filter="url(#glow)"/>
    <circle
        cx="256"
        cy="256"
        r="24"
        fill="url(#gCore)"/>
    <circle
        cx="256"
        cy="256"
        r="12"
        fill="#FFFFFF"
        opacity=".94"/>
    <circle
        cx="256"
        cy="154"
        r="13"
        fill="url(#gOuter)"/>
    <circle
        cx="358"
        cy="256"
        r="13"
        fill="url(#gOuter)"/>
    <circle
        cx="256"
        cy="358"
        r="13"
        fill="url(#gOuter)"/>
    <circle
        cx="154"
        cy="256"
        r="13"
        fill="url(#gOuter)"/>
    <path
        d="M256 167 V232"
        fill="none"
        stroke="#5AABFF"
        stroke-width="8"
        stroke-linecap="round"/>
    <path
        d="M280 256 H345"
        fill="none"
        stroke="#5AABFF"
        stroke-width="8"
        stroke-linecap="round"/>
    <path
        d="M256 280 V345"
        fill="none"
        stroke="#5AABFF"
        stroke-width="8"
        stroke-linecap="round"/>
    <path
        d="M167 256 H232"
        fill="none"
        stroke="#5AABFF"
        stroke-width="8"
        stroke-linecap="round"/>
    <ellipse
        cx="230"
        cy="206"
        rx="84"
        ry="42"
        fill="url(#gHighlight)"
        opacity=".45"/>
    <circle
        cx="256"
        cy="256"
        r="108"
        fill="#58A6FF"
        opacity=".05"
        filter="url(#glow)"/>
    <circle
        cx="256"
        cy="256"
        r="76"
        fill="none"
        stroke="#FFFFFF"
        stroke-width="2"
        opacity=".18"/>
    <circle
        cx="256"
        cy="256"
        r="88"
        fill="none"
        stroke="#7FC2FF"
        stroke-width="2"
        opacity=".12"/>
    <circle
        cx="256"
        cy="154"
        r="5"
        fill="#FFFFFF"
        opacity=".70"/>
    <circle
        cx="358"
        cy="256"
        r="5"
        fill="#FFFFFF"
        opacity=".70"/>
    <circle
        cx="256"
        cy="358"
        r="5"
        fill="#FFFFFF"
        opacity=".70"/>
    <circle
        cx="154"
        cy="256"
        r="5"
        fill="#FFFFFF"
        opacity=".70"/>
    <circle
        cx="256"
        cy="256"
        r="8"
        fill="#FFFFFF"
        opacity=".92"/>
    <ellipse
        cx="256"
        cy="256"
        rx="34"
        ry="10"
        fill="#FFFFFF"
        opacity=".26"/>
    <ellipse
        cx="256"
        cy="250"
        rx="22"
        ry="5"
        fill="#FFFFFF"
        opacity=".48"/>
    <circle
        cx="256"
        cy="256"
        r="18"
        fill="#FFFFFF"
        opacity=".10"
        filter="url(#glow)"/>
</g>
</svg>
